<svg width="25" height="24" viewBox="0 0 25 24" fill="none" xmlns="http://www.w3.org/2000/svg">
<path fill-rule="evenodd" clip-rule="evenodd" d="M15.4179 18.1234C15.764 18.351 15.8601 18.816 15.6325 19.1621L13.1669 22.9121C12.9393 23.2582 12.4743 23.3543 12.1282 23.1268C11.7821 22.8992 11.686 22.4342 11.9135 22.088L14.3792 18.338C14.6067 17.9919 15.0718 17.8958 15.4179 18.1234Z" fill="white"/>
<path fill-rule="evenodd" clip-rule="evenodd" d="M13.1682 14.3735C13.5142 14.6013 13.61 15.0664 13.3823 15.4124L10.4198 19.9124C10.192 20.2583 9.7269 20.3542 9.38092 20.1264C9.03495 19.8986 8.93913 19.4335 9.16689 19.0876L12.1294 14.5876C12.3572 14.2416 12.8223 14.1458 13.1682 14.3735Z" fill="white"/>
<path fill-rule="evenodd" clip-rule="evenodd" d="M16.2626 3.10809C15.1714 2.89105 14.0404 3.00244 13.0126 3.42818C11.9847 3.85393 11.1062 4.5749 10.4882 5.49993C9.87007 6.42495 9.54017 7.51249 9.54017 8.62501C9.54017 9.03923 9.20438 9.37501 8.79017 9.37501C8.37596 9.37501 8.04017 9.03923 8.04017 8.62501C8.04017 8.25678 8.0687 7.89071 8.12482 7.52991C7.97405 7.50925 7.82175 7.49922 7.66903 7.5L7.66517 7.50001C6.77006 7.50001 5.91162 7.85559 5.27868 8.48853C4.64574 9.12146 4.29016 9.97991 4.29016 10.875C4.29016 11.7701 4.64574 12.6286 5.27868 13.2615C5.91162 13.8944 6.77006 14.25 7.66517 14.25H15.1652C16.2777 14.25 17.3652 13.9201 18.2903 13.302C19.2153 12.684 19.9363 11.8054 20.362 10.7776C20.7878 9.74977 20.8991 8.61877 20.6821 7.52763C20.4651 6.43648 19.9293 5.4342 19.1427 4.64753C18.356 3.86086 17.3537 3.32513 16.2626 3.10809ZM8.51296 6.0728C8.70166 5.58095 8.94527 5.10908 9.24095 4.66657C10.0239 3.49487 11.1366 2.58164 12.4386 2.04236C13.7405 1.50309 15.1731 1.36199 16.5552 1.63691C17.9373 1.91183 19.2069 2.59042 20.2033 3.58687C21.1998 4.58332 21.8784 5.85288 22.1533 7.23499C22.4282 8.61711 22.2871 10.0497 21.7478 11.3516C21.2086 12.6536 20.2953 13.7663 19.1236 14.5492C17.9519 15.3321 16.5744 15.75 15.1652 15.75H7.66517C6.37224 15.75 5.13226 15.2364 4.21802 14.3222C3.30378 13.4079 2.79016 12.1679 2.79016 10.875C2.79016 9.58208 3.30378 8.34211 4.21802 7.42787C5.13181 6.51407 6.37102 6.00051 7.66326 6.00001" fill="white"/>
</svg>
