<svg width="35" height="35" viewBox="0 0 35 35" fill="none" xmlns="http://www.w3.org/2000/svg">
<path fill-rule="evenodd" clip-rule="evenodd" d="M35 20.0769C32.9268 21.1763 30.5621 21.7991 28.0519 21.7991C19.8499 21.7991 13.2009 15.1501 13.2009 6.94806C13.2009 4.43789 13.8237 2.07318 14.9231 0C6.47326 1.28992 0 8.58839 0 17.3988C0 27.1197 7.88033 35 17.6012 35C26.4116 35 33.7101 28.5267 35 20.0769Z" fill="url(#paint0_linear_311_1245)"/>
<path fill-rule="evenodd" clip-rule="evenodd" d="M34.6381 20.5687C32.6469 21.5333 30.4122 22.0741 28.0519 22.0741C19.6981 22.0741 12.9259 15.3019 12.9259 6.94806C12.9259 4.58778 13.4667 2.35312 14.4313 0.36185C6.37619 1.85098 0.275019 8.91262 0.275019 17.3988C0.275019 26.9678 8.03222 34.725 17.6012 34.725C26.0874 34.725 33.149 28.6238 34.6381 20.5687ZM34.6967 20.2332C32.6974 21.2352 30.4405 21.7991 28.0519 21.7991C19.8499 21.7991 13.2009 15.1501 13.2009 6.94806C13.2009 4.55946 13.7648 2.30257 14.7668 0.30325C14.8178 0.201493 14.8699 0.100405 14.9231 0C14.8098 0.0173009 14.6968 0.0356827 14.5842 0.0551345C6.30078 1.48597 0 8.70656 0 17.3988C0 27.1197 7.88033 35 17.6012 35C26.2934 35 33.514 28.6992 34.9449 20.4158C34.9643 20.3032 34.9827 20.1902 35 20.0769C34.8996 20.1301 34.7985 20.1822 34.6967 20.2332Z" fill="url(#paint1_radial_311_1245)" fill-opacity="0.6"/>
<defs>
<linearGradient id="paint0_linear_311_1245" x1="17.5" y1="0" x2="17.5" y2="35" gradientUnits="userSpaceOnUse">
<stop stop-color="#FFEE94"/>
<stop offset="1" stop-color="#FF9900"/>
</linearGradient>
<radialGradient id="paint1_radial_311_1245" cx="0" cy="0" r="1" gradientUnits="userSpaceOnUse" gradientTransform="translate(11.0008 14.9236) rotate(72.0619) scale(21.1022)">
<stop stop-color="#EEEFCC"/>
<stop offset="1" stop-color="#C9B262"/>
</radialGradient>
</defs>
</svg>
