<svg width="121" height="92" viewBox="0 0 121 92" fill="none" xmlns="http://www.w3.org/2000/svg">
<g clip-path="url(#clip0_281_443)">
<path d="M93.7473 38.2956L102.622 31.5479C103.88 30.5911 103.88 29.1308 102.622 28.1741C101.364 27.2173 99.4427 27.2173 98.1846 28.1741L89.31 34.9217C88.0516 35.8785 88.0516 37.3388 89.31 38.2956C90.6014 39.2523 93.1178 39.2523 93.7473 38.2956Z" fill="#FF9900"/>
<path d="M60.2019 29.1308C62.0895 29.1308 63.3812 28.1741 63.3812 26.7137V17.0958C63.3812 15.6606 62.1229 14.6787 60.2019 14.6787C58.2813 14.6787 57.0229 15.6355 57.0229 17.0958V26.7137C57.0229 28.1741 58.9105 29.1308 60.2019 29.1308Z" fill="#FF9900"/>
<path d="M101.992 60.4269C101.992 61.8618 103.251 62.844 105.172 62.844H117.821C119.709 62.844 121 61.8873 121 60.4269C121 58.9664 119.742 58.0096 117.821 58.0096H105.172C103.251 58.035 101.992 59.4702 101.992 60.4269Z" fill="#FF9900"/>
<path d="M117.192 72.4871H3.17898C1.92063 72.4871 0 73.4439 0 74.9045C0 76.3648 1.88752 77.3215 3.17898 77.3215H117.159C119.046 77.3215 120.338 76.3648 120.338 74.9045C120.338 73.4439 119.08 72.4871 117.192 72.4871Z" fill="#FF9900"/>
<path d="M3.17898 62.844H15.8287C17.7162 62.844 19.0077 61.8873 19.0077 60.4269C19.0077 58.9664 17.7493 58.0096 15.8287 58.0096H3.17898C1.29146 58.0099 0 59.445 0 60.4269C0.0331144 61.8873 1.29146 62.844 3.17898 62.844Z" fill="#FF9900"/>
<path d="M26.6241 38.2956C27.8824 39.2523 29.8031 39.2523 31.0614 38.2956C32.3198 37.3388 32.3198 35.8785 31.0614 34.9217L22.1868 28.1741C20.9284 27.2173 19.0078 27.2173 17.7494 28.1741C16.4911 29.1308 16.4911 30.5911 17.7494 31.5479L26.6241 38.2956Z" fill="#FF9900"/>
<path d="M25.9948 62.844H95.6675C95.6675 61.8872 95.6675 61.4089 95.6675 60.4269C95.6675 45.9748 79.8388 33.9398 60.8312 33.9398C41.8235 33.9398 25.9948 45.9748 25.9948 60.4269C25.3657 61.4089 25.3657 61.8872 25.9948 62.844Z" fill="#FF9900"/>
</g>
<defs>
<clipPath id="clip0_281_443">
<rect width="121" height="92" fill="white"/>
</clipPath>
</defs>
</svg>
