<svg width="25" height="24" viewBox="0 0 25 24" fill="none" xmlns="http://www.w3.org/2000/svg">
<path fill-rule="evenodd" clip-rule="evenodd" d="M12.9704 0.885576L12.5403 1.5L12.1102 0.885576C12.3684 0.704808 12.7121 0.704808 12.9704 0.885576ZM12.5403 2.4375C12.3575 2.5801 12.124 2.7679 11.8541 2.99724C11.1719 3.57714 10.2631 4.41798 9.35624 5.46088C7.52417 7.56776 5.79028 10.395 5.79028 13.5C5.79028 15.2902 6.50144 17.0071 7.76731 18.273C9.03318 19.5388 10.7501 20.25 12.5403 20.25C14.3305 20.25 16.0474 19.5388 17.3133 18.273C18.5791 17.0071 19.2903 15.2902 19.2903 13.5C19.2903 10.395 17.5564 7.56776 15.7243 5.46088C14.8175 4.41798 13.9087 3.57714 13.2264 2.99724C12.9566 2.7679 12.7231 2.5801 12.5403 2.4375ZM12.1097 0.88589C12.11 0.885723 12.1102 0.885576 12.5403 1.5C12.9704 0.885576 12.9706 0.885723 12.9708 0.88589L12.9714 0.886326L12.9732 0.887558L12.9787 0.891469L12.9978 0.905033C13.014 0.916613 13.0371 0.933255 13.0667 0.954843C13.1259 0.998014 13.2108 1.061 13.318 1.14288C13.5322 1.30659 13.8354 1.54618 14.1979 1.85433C14.9219 2.46974 15.8881 3.36327 16.8562 4.47662C18.7742 6.68224 20.7903 9.85496 20.7903 13.5C20.7903 15.688 19.9211 17.7865 18.3739 19.3336C16.8267 20.8808 14.7283 21.75 12.5403 21.75C10.3522 21.75 8.25383 20.8808 6.70665 19.3336C5.15948 17.7865 4.29028 15.688 4.29028 13.5C4.29028 9.85496 6.3064 6.68224 8.22433 4.47662C9.19246 3.36327 10.1587 2.46974 10.8827 1.85433C11.2452 1.54618 11.5484 1.30659 11.7626 1.14288C11.8697 1.061 11.9547 0.998014 12.0138 0.954843C12.0434 0.933255 12.0665 0.916613 12.0827 0.905033L12.1018 0.891469L12.1074 0.887558L12.1091 0.886326L12.1097 0.88589Z" fill="white"/>
<path fill-rule="evenodd" clip-rule="evenodd" d="M17.1019 13.5203C17.5101 13.5905 17.7841 13.9784 17.7138 14.3866C17.5297 15.4559 17.0183 16.4417 16.2501 17.208C15.4819 17.9742 14.4948 18.4831 13.425 18.6645C13.0166 18.7337 12.6295 18.4588 12.5602 18.0504C12.491 17.642 12.7659 17.2548 13.1743 17.1856C13.9379 17.0561 14.6425 16.6929 15.1908 16.146C15.7391 15.599 16.1042 14.8954 16.2356 14.1322C16.3058 13.724 16.6937 13.45 17.1019 13.5203Z" fill="white"/>
</svg>
