<svg width="25" height="24" viewBox="0 0 25 24" fill="none" xmlns="http://www.w3.org/2000/svg">
<path fill-rule="evenodd" clip-rule="evenodd" d="M14.79 14.25C15.3383 14.2496 15.8762 14.3995 16.3453 14.6834C16.8145 14.9673 17.1968 15.3744 17.4509 15.8605C17.7049 16.3465 17.8208 16.8929 17.786 17.4402C17.7513 17.9875 17.5671 18.5148 17.2537 18.9648C16.9402 19.4147 16.5094 19.7702 16.0081 19.9925C15.5068 20.2148 14.9541 20.2954 14.4101 20.2256C13.8662 20.1558 13.3518 19.9382 12.9228 19.5965C12.4939 19.2548 12.1668 18.8021 11.9772 18.2875C11.8339 17.8988 12.0329 17.4677 12.4215 17.3244C12.8102 17.1812 13.2414 17.3801 13.3846 17.7688C13.4794 18.026 13.643 18.2524 13.8575 18.4232C14.0719 18.5941 14.3291 18.7029 14.6011 18.7378C14.8731 18.7727 15.1494 18.7324 15.4001 18.6212C15.6507 18.5101 15.8661 18.3324 16.0229 18.1074C16.1796 17.8824 16.2717 17.6187 16.289 17.3451C16.3064 17.0714 16.2485 16.7982 16.1215 16.5552C15.9945 16.3122 15.8033 16.1087 15.5687 15.9667C15.3341 15.8247 15.0651 15.7498 14.7909 15.75L4.29027 15.75C3.87605 15.75 3.54027 15.4142 3.54027 15C3.54027 14.5858 3.87605 14.25 4.29027 14.25H14.79Z" fill="white"/>
<path fill-rule="evenodd" clip-rule="evenodd" d="M12.4001 5.37875C12.1494 5.26761 11.8731 5.2273 11.6011 5.26221C11.3292 5.29711 11.072 5.40591 10.8575 5.57675C10.643 5.7476 10.4795 5.97397 10.3846 6.23125C10.2414 6.61991 9.8102 6.81885 9.42155 6.6756C9.03289 6.53235 8.83395 6.10116 8.9772 5.7125C9.16686 5.19793 9.49393 4.7452 9.92288 4.4035C10.3518 4.06181 10.8662 3.84423 11.4102 3.77441C11.9541 3.7046 12.5068 3.78521 13.0081 4.00751C13.5094 4.2298 13.9403 4.58526 14.2537 5.03525C14.5672 5.48524 14.7513 6.01254 14.7861 6.55984C14.8208 7.10714 14.7049 7.6535 14.4509 8.13954C14.1969 8.62557 13.8145 9.03268 13.3453 9.31661C12.8763 9.60044 12.3385 9.75033 11.7903 9.75H2.7903C2.37608 9.75 2.0403 9.41421 2.0403 9C2.0403 8.58579 2.37608 8.25 2.7903 8.25H11.7903C12.0645 8.25022 12.3341 8.17527 12.5687 8.03331C12.8033 7.89134 12.9945 7.68779 13.1215 7.44477C13.2485 7.20175 13.3065 6.92857 13.2891 6.65492C13.2717 6.38127 13.1796 6.11762 13.0229 5.89262C12.8662 5.66763 12.6508 5.4899 12.4001 5.37875Z" fill="white"/>
<path fill-rule="evenodd" clip-rule="evenodd" d="M20.6501 8.37875C20.3994 8.26761 20.1231 8.2273 19.8511 8.26221C19.5791 8.29711 19.3219 8.40591 19.1075 8.57675C18.893 8.7476 18.7294 8.97397 18.6346 9.23125C18.4914 9.61991 18.0602 9.81885 17.6715 9.6756C17.2829 9.53235 17.0839 9.10116 17.2272 8.7125C17.4168 8.19793 17.7439 7.7452 18.1728 7.4035C18.6018 7.06181 19.1162 6.84423 19.6601 6.77441C20.2041 6.7046 20.7568 6.78521 21.2581 7.00751C21.7594 7.2298 22.1902 7.58526 22.5037 8.03525C22.8171 8.48524 23.0013 9.01254 23.036 9.55984C23.0708 10.1071 22.9549 10.6535 22.7009 11.1395C22.4468 11.6256 22.0645 12.0327 21.5953 12.3166C21.1263 12.6005 20.5884 12.7503 20.0402 12.75C20.04 12.75 20.0403 12.75 20.0402 12.75H3.54027C3.12605 12.75 2.79027 12.4142 2.79027 12C2.79027 11.5858 3.12605 11.25 3.54027 11.25H20.0403C20.3145 11.2502 20.5841 11.1753 20.8187 11.0333C21.0533 10.8913 21.2445 10.6878 21.3715 10.4448C21.4985 10.2018 21.5564 9.92857 21.539 9.65492C21.5217 9.38127 21.4296 9.11762 21.2729 8.89262C21.1161 8.66763 20.9007 8.4899 20.6501 8.37875Z" fill="white"/>
</svg>
