<svg width="46" height="46" viewBox="0 0 46 46" fill="none" xmlns="http://www.w3.org/2000/svg">
<g clip-path="url(#clip0_183_1996)">
<g clip-path="url(#clip1_183_1996)">
<g filter="url(#filter0_f_183_1996)">
<rect x="10.6714" y="25.3915" width="24.38" height="3.44999" rx="1.725" fill="#00BCFF"/>
</g>
<g filter="url(#filter1_i_183_1996)">
<path d="M17.9507 12.7011C18 12.4164 18.0258 12.1236 18.0258 11.8246C18.0258 9.02833 15.774 6.76147 12.9962 6.76147C10.9312 6.76147 9.1568 8.01429 8.38221 9.80609C7.75469 9.2607 6.94042 8.9314 6.05058 8.9314C4.06647 8.9314 2.45802 10.5686 2.45802 12.5881C2.45802 12.7006 2.46301 12.8119 2.47277 12.9217C1.51845 13.3923 0.86133 14.3797 0.86133 15.5216C0.86133 17.1194 2.14808 18.4148 3.73538 18.4148H17.3073C18.8946 18.4148 20.1813 17.1194 20.1813 15.5216C20.1813 14.1463 19.2282 12.9952 17.9507 12.7011Z" fill="url(#paint0_linear_183_1996)"/>
</g>
<g filter="url(#filter2_bi_183_1996)">
<path d="M40.6567 20.4867C40.7719 19.9023 40.8319 19.3012 40.8319 18.6876C40.8319 12.9478 35.5777 8.2948 29.0962 8.2948C24.2778 8.2948 20.1376 10.8664 18.3302 14.5443C16.8661 13.4248 14.9661 12.7489 12.8898 12.7489C8.26019 12.7489 4.50716 16.1094 4.50716 20.2548C4.50716 20.4856 4.5188 20.714 4.54157 20.9395C2.31482 21.9054 0.78154 23.9322 0.78154 26.276C0.78154 29.5559 3.78397 32.2148 7.48765 32.2148H39.1554C42.8591 32.2148 45.8615 29.5559 45.8615 26.276C45.8615 23.4532 43.6376 21.0904 40.6567 20.4867Z" fill="url(#paint1_linear_183_1996)"/>
</g>
<g filter="url(#filter3_bi_183_1996)">
<path d="M41.1302 32.3456C41.1874 32.016 41.2172 31.6769 41.2172 31.3308C41.2172 28.0929 38.608 25.4681 35.3893 25.4681C32.9965 25.4681 30.9405 26.9188 30.0429 28.9935C29.3158 28.362 28.3723 27.9807 27.3412 27.9807C25.0422 27.9807 23.1784 29.8764 23.1784 32.2148C23.1784 32.345 23.1842 32.4739 23.1955 32.6011C22.0897 33.1459 21.3283 34.2892 21.3283 35.6114C21.3283 37.4616 22.8193 38.9615 24.6585 38.9615H40.3847C42.2239 38.9615 43.7149 37.4616 43.7149 35.6114C43.7149 34.019 42.6105 32.6862 41.1302 32.3456Z" fill="url(#paint2_linear_183_1996)"/>
</g>
</g>
</g>
<defs>
<filter id="filter0_f_183_1996" x="-7.11524" y="7.60484" width="59.9533" height="39.0232" filterUnits="userSpaceOnUse" color-interpolation-filters="sRGB">
<feFlood flood-opacity="0" result="BackgroundImageFix"/>
<feBlend mode="normal" in="SourceGraphic" in2="BackgroundImageFix" result="shape"/>
<feGaussianBlur stdDeviation="8.89332" result="effect1_foregroundBlur_183_1996"/>
</filter>
<filter id="filter1_i_183_1996" x="0.861328" y="6.76147" width="19.32" height="15.8979" filterUnits="userSpaceOnUse" color-interpolation-filters="sRGB">
<feFlood flood-opacity="0" result="BackgroundImageFix"/>
<feBlend mode="normal" in="SourceGraphic" in2="BackgroundImageFix" result="shape"/>
<feColorMatrix in="SourceAlpha" type="matrix" values="0 0 0 0 0 0 0 0 0 0 0 0 0 0 0 0 0 0 127 0" result="hardAlpha"/>
<feOffset dy="4.66902"/>
<feGaussianBlur stdDeviation="2.12228"/>
<feComposite in2="hardAlpha" operator="arithmetic" k2="-1" k3="1"/>
<feColorMatrix type="matrix" values="0 0 0 0 1 0 0 0 0 1 0 0 0 0 1 0 0 0 1 0"/>
<feBlend mode="normal" in2="shape" result="effect1_innerShadow_183_1996"/>
</filter>
<filter id="filter2_bi_183_1996" x="-7.21846" y="0.2948" width="61.0799" height="39.9199" filterUnits="userSpaceOnUse" color-interpolation-filters="sRGB">
<feFlood flood-opacity="0" result="BackgroundImageFix"/>
<feGaussianBlur in="BackgroundImageFix" stdDeviation="4"/>
<feComposite in2="SourceAlpha" operator="in" result="effect1_backgroundBlur_183_1996"/>
<feBlend mode="normal" in="SourceGraphic" in2="effect1_backgroundBlur_183_1996" result="shape"/>
<feColorMatrix in="SourceAlpha" type="matrix" values="0 0 0 0 0 0 0 0 0 0 0 0 0 0 0 0 0 0 127 0" result="hardAlpha"/>
<feOffset dy="4.66902"/>
<feGaussianBlur stdDeviation="2.12228"/>
<feComposite in2="hardAlpha" operator="arithmetic" k2="-1" k3="1"/>
<feColorMatrix type="matrix" values="0 0 0 0 1 0 0 0 0 1 0 0 0 0 1 0 0 0 1 0"/>
<feBlend mode="normal" in2="shape" result="effect2_innerShadow_183_1996"/>
</filter>
<filter id="filter3_bi_183_1996" x="13.3283" y="17.4681" width="38.3866" height="29.4933" filterUnits="userSpaceOnUse" color-interpolation-filters="sRGB">
<feFlood flood-opacity="0" result="BackgroundImageFix"/>
<feGaussianBlur in="BackgroundImageFix" stdDeviation="4"/>
<feComposite in2="SourceAlpha" operator="in" result="effect1_backgroundBlur_183_1996"/>
<feBlend mode="normal" in="SourceGraphic" in2="effect1_backgroundBlur_183_1996" result="shape"/>
<feColorMatrix in="SourceAlpha" type="matrix" values="0 0 0 0 0 0 0 0 0 0 0 0 0 0 0 0 0 0 127 0" result="hardAlpha"/>
<feOffset dy="4.66902"/>
<feGaussianBlur stdDeviation="2.12228"/>
<feComposite in2="hardAlpha" operator="arithmetic" k2="-1" k3="1"/>
<feColorMatrix type="matrix" values="0 0 0 0 1 0 0 0 0 1 0 0 0 0 1 0 0 0 1 0"/>
<feBlend mode="normal" in2="shape" result="effect2_innerShadow_183_1996"/>
</filter>
<linearGradient id="paint0_linear_183_1996" x1="0.861326" y1="18.4298" x2="22.6284" y2="7.04889" gradientUnits="userSpaceOnUse">
<stop stop-color="#E2FFFF"/>
<stop offset="1" stop-color="white"/>
</linearGradient>
<linearGradient id="paint1_linear_183_1996" x1="0.781532" y1="32.2457" x2="48.5732" y2="3.84049" gradientUnits="userSpaceOnUse">
<stop stop-color="#E2FFFF"/>
<stop offset="1" stop-color="white"/>
</linearGradient>
<linearGradient id="paint2_linear_183_1996" x1="21.3283" y1="38.9789" x2="46.5426" y2="25.786" gradientUnits="userSpaceOnUse">
<stop stop-color="#E2FFFF"/>
<stop offset="1" stop-color="white"/>
</linearGradient>
<clipPath id="clip0_183_1996">
<rect width="46" height="45.9999" fill="white"/>
</clipPath>
<clipPath id="clip1_183_1996">
<rect width="46" height="45.9999" fill="white" transform="translate(-0.138672 -0.13855)"/>
</clipPath>
</defs>
</svg>
