<svg width="121" height="96" viewBox="0 0 121 96" fill="none" xmlns="http://www.w3.org/2000/svg">
<g clip-path="url(#clip0_281_468)">
<path d="M93.7473 39.9606L102.622 32.9195C103.88 31.9211 103.88 30.3973 102.622 29.399C101.364 28.4006 99.4427 28.4006 98.1846 29.399L89.31 36.44C88.0516 37.4384 88.0516 38.9622 89.31 39.9606C90.6014 40.9589 93.1178 40.9589 93.7473 39.9606Z" fill="#EDD34A"/>
<path d="M60.2019 30.3974C62.0895 30.3974 63.3812 29.399 63.3812 27.8752V17.8391C63.3812 16.3415 62.1229 15.3169 60.2019 15.3169C58.2813 15.3169 57.0229 16.3153 57.0229 17.8391V27.8752C57.0229 29.399 58.9105 30.3974 60.2019 30.3974Z" fill="#EDD34A"/>
<path d="M101.992 63.0542C101.992 64.5514 103.251 65.5763 105.172 65.5763H117.821C119.709 65.5763 121 64.578 121 63.0542C121 61.5301 119.742 60.5317 117.821 60.5317H105.172C103.251 60.5583 101.992 62.0558 101.992 63.0542Z" fill="#EDD34A"/>
<path d="M117.192 75.6387H3.17898C1.92063 75.6387 0 76.6371 0 78.1612C0 79.685 1.88752 80.6833 3.17898 80.6833H117.159C119.046 80.6833 120.338 79.685 120.338 78.1612C120.338 76.6371 119.08 75.6387 117.192 75.6387Z" fill="#EDD34A"/>
<path d="M3.17898 65.5763H15.8287C17.7162 65.5763 19.0077 64.578 19.0077 63.0542C19.0077 61.5301 17.7493 60.5317 15.8287 60.5317H3.17898C1.29146 60.532 0 62.0295 0 63.0542C0.0331144 64.578 1.29146 65.5763 3.17898 65.5763Z" fill="#EDD34A"/>
<path d="M26.6241 39.9606C27.8824 40.9589 29.8031 40.9589 31.0614 39.9606C32.3198 38.9622 32.3198 37.4384 31.0614 36.44L22.1868 29.399C20.9284 28.4006 19.0078 28.4006 17.7494 29.399C16.4911 30.3973 16.4911 31.9211 17.7494 32.9195L26.6241 39.9606Z" fill="#EDD34A"/>
<path d="M25.9948 65.5763H95.6675C95.6675 64.578 95.6675 64.0788 95.6675 63.0542C95.6675 47.9737 79.8388 35.4154 60.8312 35.4154C41.8235 35.4154 25.9948 47.9737 25.9948 63.0542C25.3657 64.0788 25.3657 64.578 25.9948 65.5763Z" fill="#EDD34A"/>
</g>
<defs>
<clipPath id="clip0_281_468">
<rect width="121" height="96" fill="white"/>
</clipPath>
</defs>
</svg>
